<svg width="28" height="15" viewBox="0 0 28 15" fill="none" xmlns="http://www.w3.org/2000/svg">
<path d="M27.5605 13.5466C27.527 13.478 27.4957 13.4211 27.4667 13.3755C26.9859 12.554 26.0673 11.5456 24.7113 10.3502L24.6826 10.3228L24.6683 10.3094L24.6538 10.2956H24.6392C24.0238 9.73891 23.6341 9.36461 23.4709 9.17298C23.1722 8.80793 23.1053 8.43842 23.2685 8.06402C23.3839 7.78115 23.817 7.18377 24.5669 6.27105C24.9614 5.78734 25.2738 5.39966 25.5045 5.10759C27.1684 3.00858 27.8898 1.66729 27.6685 1.08319L27.5826 0.94669C27.5248 0.864514 27.3758 0.789337 27.1356 0.720777C26.8949 0.65236 26.5872 0.641046 26.2121 0.686641L22.0574 0.713873C21.9901 0.691243 21.894 0.693352 21.7688 0.720777C21.6438 0.748201 21.5812 0.761961 21.5812 0.761961L21.5089 0.796241L21.4515 0.837425C21.4034 0.864657 21.3505 0.912554 21.2927 0.981019C21.2353 1.04924 21.1872 1.12931 21.1488 1.22055C20.6965 2.32475 20.1822 3.35139 19.6051 4.3004C19.2492 4.86628 18.9224 5.3567 18.6239 5.77195C18.3258 6.18705 18.0758 6.49289 17.874 6.68893C17.6719 6.88517 17.4895 7.04238 17.3256 7.16114C17.1621 7.27994 17.0372 7.33014 16.9508 7.31178C16.8641 7.29341 16.7825 7.2752 16.7053 7.25698C16.5707 7.1748 16.4625 7.06304 16.3809 6.92161C16.2989 6.78017 16.2437 6.60215 16.2149 6.3877C16.1862 6.1731 16.1692 5.98851 16.1644 5.83332C16.1599 5.67831 16.1619 5.45906 16.1717 5.17619C16.1817 4.89318 16.1862 4.70169 16.1862 4.60129C16.1862 4.25446 16.1933 3.87805 16.2076 3.47196C16.2222 3.06588 16.2339 2.74412 16.2438 2.50709C16.2536 2.26981 16.2581 2.01877 16.2581 1.75412C16.2581 1.48947 16.2412 1.28192 16.2076 1.13128C16.1745 0.980826 16.1236 0.834788 16.0565 0.693209C15.9891 0.551773 15.8903 0.442364 15.7608 0.364694C15.631 0.287121 15.4696 0.22556 15.2775 0.179821C14.7678 0.0703642 14.1186 0.011153 13.3298 0.00194768C11.5411 -0.0162712 10.3917 0.0933293 9.88201 0.330606C9.68005 0.430857 9.49729 0.567834 9.33389 0.741105C9.16073 0.941943 9.13657 1.05154 9.26158 1.06957C9.83871 1.1516 10.2473 1.34784 10.4877 1.65809L10.5744 1.82249C10.6418 1.9411 10.7091 2.1511 10.7765 2.45219C10.8437 2.75328 10.8871 3.08635 10.9062 3.45121C10.9542 4.11749 10.9542 4.68783 10.9062 5.16229C10.8581 5.63694 10.8126 6.00644 10.7692 6.2711C10.7258 6.53575 10.6609 6.75021 10.5744 6.91441C10.4877 7.07867 10.4301 7.17907 10.4012 7.2155C10.3723 7.25194 10.3483 7.27491 10.3292 7.28392C10.2042 7.32937 10.0742 7.35253 9.93961 7.35253C9.80486 7.35253 9.64145 7.28857 9.44914 7.16075C9.25688 7.03293 9.05734 6.85736 8.85053 6.63375C8.64372 6.41009 8.41049 6.09754 8.15072 5.69605C7.89116 5.29457 7.62184 4.82006 7.34293 4.27254L7.11217 3.87546C6.96791 3.62002 6.77085 3.24806 6.52079 2.75994C6.27057 2.27163 6.04941 1.79928 5.85715 1.343C5.7803 1.15136 5.66484 1.00547 5.51099 0.905075L5.43878 0.86389C5.39078 0.827453 5.31373 0.788761 5.20802 0.747529C5.10217 0.706345 4.99171 0.676811 4.8762 0.65864L0.92345 0.685873C0.519529 0.685873 0.245465 0.7727 0.101157 0.946115L0.0434035 1.02815C0.0145521 1.07384 0 1.14681 0 1.24725C0 1.34765 0.0288515 1.47087 0.086605 1.61676C0.663635 2.90359 1.29114 4.14462 1.96913 5.34007C2.64711 6.53551 3.23627 7.49847 3.73624 8.22809C4.23632 8.95823 4.74604 9.64734 5.26542 10.2951C5.7848 10.943 6.12859 11.3583 6.2968 11.5407C6.46521 11.7235 6.59749 11.8601 6.69365 11.9513L7.05437 12.2798C7.28518 12.4989 7.62412 12.7612 8.07134 13.0669C8.51867 13.3727 9.01389 13.6738 9.55727 13.9706C10.1007 14.267 10.733 14.5088 11.4544 14.6958C12.1757 14.883 12.8777 14.9582 13.5606 14.9219H15.2196C15.5561 14.8944 15.811 14.794 15.9843 14.6207L16.0417 14.5521C16.0803 14.4976 16.1164 14.413 16.1498 14.2991C16.1835 14.1851 16.2003 14.0594 16.2003 13.9227C16.1904 13.5304 16.2219 13.1768 16.2939 12.862C16.3658 12.5473 16.4477 12.31 16.5394 12.1502C16.631 11.9906 16.7344 11.8558 16.8494 11.7466C16.9647 11.6372 17.0469 11.5709 17.0951 11.548C17.143 11.5251 17.1812 11.5095 17.2101 11.5001C17.4409 11.4272 17.7125 11.4978 18.0254 11.7125C18.338 11.9269 18.6312 12.1917 18.9055 12.5064C19.1796 12.8214 19.509 13.1748 19.8936 13.5672C20.2785 13.9596 20.615 14.2514 20.9034 14.4433L21.1918 14.6076C21.3844 14.7172 21.6345 14.8176 21.9423 14.9088C22.2495 15 22.5188 15.0228 22.7499 14.9772L26.4429 14.9226C26.8081 14.9226 27.0924 14.8652 27.294 14.7513C27.496 14.6372 27.616 14.5116 27.6547 14.3749C27.6933 14.2381 27.6954 14.0828 27.662 13.9092C27.6278 13.7361 27.5941 13.6151 27.5605 13.5466Z" fill="#66C05D"/>
</svg>
